<svg xmlns="http://www.w3.org/2000/svg" xmlns:xlink="http://www.w3.org/1999/xlink" xmlns:inkscape="http://www.inkscape.org/namespaces/inkscape" version="1.1" width="141.7323" height="42.5197" viewBox="0 0 141.7323 42.5197">
<defs>
<clipPath id="clip_1">
<path transform="matrix(1,0,0,-1,0,42.5197)" d="M-.1738-.1001H141.5585V42.419599H-.1738Z" clip-rule="evenodd"/>
</clipPath>
</defs>
<g clip-path="url(#clip_1)">
<path transform="matrix(1,0,0,-1,0,42.5197)" d="M36.3302 30.9736C36.4575 30.9606 36.5848 30.9444 36.7189 30.9246 36.8527 30.9019 36.9768 30.8789 37.0973 30.856 37.2183 30.8299 37.3226 30.8038 37.4077 30.7777 37.5545 30.7287 37.6724 30.67 37.7541 30.6014 37.8357 30.5359 37.8944 30.4447 37.9338 30.3335 37.9695 30.2224 37.999 30.079 38.0154 29.8959 38.035 29.4715 38.0446 28.9162 38.0511 28.2305 38.0543 27.5445 38.0543 26.7545 38.0543 25.8596 38.0543 25.1575 38.0543 24.5143 38.0511 23.923 38.0511 23.3354 38.0446 22.8226 38.0381 22.3818 38.0285 21.941 38.0154 21.5915 37.9956 21.3335 37.976 21.0526 37.9171 20.8403 37.8159 20.6969 37.7116 20.5532 37.5644 20.4585 37.3686 20.4126 37.1991 20.3734 37.0193 20.3374 36.8362 20.308 36.6534 20.2788 36.4314 20.2558 36.1732 20.2363 36.1471 20.2167 36.1307 20.1645 36.121 20.0761 36.1114 19.9879 36.1114 19.8967 36.121 19.802 36.1307 19.7039 36.1471 19.6353 36.1732 19.5897H36.9961C37.9043 19.5766 38.7465 19.5636 39.524 19.544 40.3044 19.5242 40.9901 19.5146 41.5811 19.5114 42.2736 19.508 42.9267 19.5602 43.5438 19.6614 44.1578 19.7626 44.7389 19.9293 45.2812 20.158 45.8266 20.3896 46.336 20.6969 46.813 21.0787 47.211 21.3987 47.5671 21.7843 47.8902 22.2415 48.2105 22.6953 48.4654 23.2243 48.6578 23.8283 48.8472 24.4327 48.945 25.115 48.9484 25.8792 48.9484 26.4767 48.8735 27.0485 48.7233 27.5939 48.5731 28.1424 48.354 28.6486 48.0637 29.1155 47.7731 29.5824 47.4137 29.9908 46.9891 30.3466 46.4632 30.7777 45.8561 31.0978 45.1701 31.3067 44.4844 31.5156 43.704 31.6202 42.8355 31.6202 42.4338 31.6202 42.0778 31.6168 41.7674 31.6103 41.4573 31.6037 41.1664 31.5972 40.8954 31.5876 40.6244 31.5811 40.35 31.5711 40.0691 31.5615 39.7885 31.555 39.4747 31.5485 39.132 31.542 39.0146 31.542 38.861 31.5451 38.6685 31.5485 38.4758 31.5516 38.2669 31.5581 38.0412 31.5615 37.8128 31.568 37.5905 31.5746 37.3686 31.5811 37.15 31.5845 36.9505 31.591 36.7775 31.5941 36.6043 31.5972 36.4737 31.6006 36.3889 31.6006 36.3626 31.5711 36.343 31.5125 36.3268 31.4243 36.3107 31.3393 36.3039 31.2511 36.3008 31.1632 36.3008 31.0748 36.3107 31.0127 36.3302 30.9736ZM40.5428 21.5099C40.5298 21.6439 40.5164 21.8494 40.5099 22.1204 40.5003 22.3917 40.494 22.7117 40.4906 23.0839 40.4875 23.453 40.4841 23.8547 40.4841 24.2889 40.4841 24.7201 40.4841 25.1674 40.4841 25.6246 40.4841 25.9804 40.4841 26.3529 40.4841 26.7415 40.4841 27.1298 40.4841 27.5153 40.4841 27.8974 40.4875 28.283 40.4875 28.6418 40.4875 28.9817 40.4906 29.3213 40.4906 29.6184 40.494 29.8763 40.4972 30.1311 40.5003 30.327 40.5037 30.4642 40.5133 30.5263 40.5363 30.585 40.5689 30.6405 40.6015 30.6961 40.6406 30.7352 40.68 30.7582 40.7418 30.7874 40.8464 30.8137 40.987 30.8299 41.1307 30.8463 41.2841 30.856 41.4442 30.856 41.9766 30.8594 42.4794 30.8038 42.9562 30.6927 43.4296 30.5819 43.8608 30.3925 44.246 30.1311 44.7032 29.8142 45.0853 29.4191 45.3892 28.9457 45.6925 28.4723 45.9213 27.9465 46.0746 27.375 46.2283 26.8002 46.3034 26.2026 46.3034 25.5855 46.3034 24.9029 46.2509 24.3054 46.15 23.796 46.0454 23.2829 45.9017 22.8359 45.7157 22.4504 45.5261 22.0683 45.3073 21.7287 45.0493 21.4316 44.8075 21.1572 44.5595 20.9415 44.3015 20.7816 44.0436 20.6215 43.7788 20.5041 43.5078 20.4355 43.2371 20.3669 42.9593 20.3309 42.6784 20.3343 42.5055 20.3343 42.3031 20.3474 42.0809 20.38 41.8555 20.4094 41.6336 20.4585 41.4147 20.5302 41.199 20.6019 41.01 20.7 40.8563 20.8242 40.765 20.9188 40.693 21.0297 40.6344 21.1603 40.5754 21.291 40.5459 21.4053 40.5428 21.5099ZM50.5355 30.9736C50.7674 30.9475 50.9666 30.918 51.1364 30.892 51.3062 30.8625 51.4695 30.8268 51.6328 30.7777 51.8156 30.7191 51.9398 30.6179 52.0118 30.4739 52.0835 30.3301 52.126 30.1507 52.1425 29.9353 52.1555 29.651 52.1651 29.3343 52.1683 28.9848 52.1751 28.6322 52.1782 28.2206 52.1816 27.7537 52.1816 27.2835 52.1816 26.7316 52.1816 26.0949 52.1816 25.6113 52.1816 25.1249 52.1816 24.6351 52.1816 24.1452 52.1782 23.6849 52.1782 23.2506 52.1751 22.8129 52.1717 22.4308 52.1651 22.1043 52.1586 21.7777 52.1521 21.5328 52.1425 21.3727 52.126 21.1538 52.0965 20.9775 52.0574 20.8437 52.0152 20.7096 51.9497 20.6084 51.8581 20.5367 51.7635 20.465 51.6294 20.4094 51.4568 20.3734 51.3422 20.344 51.2082 20.3179 51.0613 20.2983 50.9145 20.2754 50.7382 20.2558 50.5355 20.2363 50.5029 20.2037 50.4799 20.145 50.4703 20.0503 50.4607 19.9587 50.4607 19.8672 50.4703 19.7759 50.4799 19.6812 50.5029 19.6223 50.5355 19.5897 50.7643 19.5897 51.0123 19.5962 51.2736 19.6061 51.5347 19.6157 51.8417 19.6223 52.1977 19.6322 52.5504 19.6418 52.9849 19.6483 53.4943 19.6483 54.1179 19.6483 54.6537 19.6387 55.1075 19.6257 55.5613 19.6126 55.9568 19.5996 56.2961 19.5897 56.3289 19.6157 56.355 19.6713 56.378 19.7626 56.3973 19.8507 56.4106 19.9423 56.4106 20.037 56.4106 20.1319 56.4007 20.1971 56.3746 20.2363 56.1623 20.2657 55.9568 20.2949 55.7572 20.3278 55.5551 20.357 55.3884 20.393 55.2577 20.4321 55.0715 20.478 54.9343 20.5532 54.8461 20.651 54.758 20.749 54.7024 20.8667 54.6763 20.9971 54.6503 21.1277 54.6341 21.2649 54.6307 21.4121 54.6109 21.7777 54.6012 22.3492 54.5981 23.1165 54.5916 23.8873 54.5916 24.8278 54.5916 25.9379 54.5916 26.5096 54.5916 27.0485 54.5916 27.5479 54.595 28.0511 54.5981 28.495 54.6046 28.8805 54.6077 29.2657 54.6177 29.5727 54.6307 29.7981 54.6341 29.9874 54.6469 30.1473 54.6701 30.2749 54.6928 30.4055 54.7384 30.5099 54.807 30.5949 54.8756 30.6797 54.9799 30.7449 55.1208 30.7973 55.2481 30.8364 55.3983 30.869 55.571 30.892 55.7444 30.918 55.9335 30.9475 56.1393 30.9736 56.1654 31.0127 56.1821 31.0748 56.1886 31.1632 56.1949 31.2511 56.1917 31.3393 56.1821 31.4243 56.1753 31.5125 56.1589 31.5711 56.1393 31.6006 55.999 31.6006 55.8128 31.5941 55.5778 31.5845 55.3459 31.5746 55.0454 31.568 54.6829 31.5581 54.3172 31.5485 53.8699 31.542 53.3375 31.542 52.7202 31.5451 52.1782 31.555 51.7113 31.5711 51.2442 31.5876 50.8589 31.5972 50.5551 31.6006 50.529 31.5711 50.5094 31.5125 50.4998 31.4243 50.4867 31.3393 50.4833 31.2511 50.4899 31.1632 50.4933 31.0748 50.5094 31.0127 50.5355 30.9736ZM56.3941 20.2363C56.3746 20.1937 56.3613 20.1285 56.355 20.037 56.3485 19.9491 56.3485 19.8607 56.355 19.7759 56.3613 19.6877 56.3746 19.6257 56.3941 19.5897 56.6878 19.5931 57.0212 19.6027 57.3868 19.6191 57.7525 19.6353 58.1477 19.6452 58.5689 19.6483 59.1372 19.6452 59.6305 19.6353 60.0486 19.6191 60.4664 19.6027 60.8026 19.5931 61.0574 19.5897 61.077 19.6223 61.0965 19.6812 61.113 19.7759 61.1291 19.8672 61.1391 19.9587 61.1391 20.0503 61.1422 20.145 61.1357 20.2037 61.1161 20.2363 60.9333 20.2558 60.7635 20.2819 60.6067 20.3114 60.4534 20.3409 60.3028 20.3734 60.156 20.4126 59.9831 20.452 59.8555 20.5072 59.7739 20.5727 59.6925 20.6413 59.6401 20.7162 59.6174 20.8046 59.5945 20.8928 59.5845 20.984 59.5879 21.0821 59.5913 21.1799 59.6174 21.327 59.6696 21.5198 59.722 21.7157 59.7937 21.941 59.8785 22.1924 59.9635 22.447 60.0514 22.7083 60.1498 22.9793 60.2476 23.2537 60.3422 23.5117 60.4304 23.7631 60.4534 23.8056 60.4826 23.8448 60.5251 23.8808 60.5642 23.9165 60.6067 23.9363 60.6461 23.9394 60.7277 23.946 60.8321 23.9494 60.9627 23.9525 61.0903 23.9559 61.2533 23.959 61.456 23.959 61.655 23.959 61.9098 23.959 62.2134 23.959 62.4322 23.959 62.6445 23.9624 62.8534 23.9624 63.0624 23.9655 63.252 23.9689 63.4218 23.9689 63.5947 23.9689 63.7319 23.9655 63.8399 23.959 63.8722 23.9559 63.9051 23.9394 63.9442 23.9068 63.9802 23.8708 64.0029 23.8448 64.0159 23.8218 64.0913 23.6293 64.1761 23.4071 64.2708 23.1491 64.3654 22.8946 64.4635 22.6267 64.5613 22.3492 64.656 22.0717 64.7444 21.8069 64.8261 21.5558 64.9074 21.3041 64.9695 21.0886 65.0154 20.9058 65.0381 20.8437 65.0381 20.772 65.012 20.6904 64.9894 20.6084 64.9239 20.5333 64.8196 20.4715 64.7084 20.4225 64.5647 20.38 64.385 20.3409 64.2087 20.3014 64.0193 20.2657 63.8201 20.2363 63.794 20.2003 63.7809 20.1351 63.7775 20.0469 63.7744 19.9587 63.7775 19.8672 63.7843 19.779 63.794 19.6909 63.807 19.6257 63.8201 19.5897 64.0259 19.5962 64.2643 19.6061 64.529 19.6126 64.7932 19.6223 65.1002 19.6322 65.4531 19.6387 65.8023 19.6452 66.2139 19.6483 66.6808 19.6483 67.3274 19.6452 67.8762 19.6353 68.3266 19.6191 68.7773 19.6027 69.1299 19.5931 69.3848 19.5897 69.4043 19.6223 69.4242 19.6812 69.4403 19.7759 69.4565 19.8672 69.4664 19.9587 69.4664 20.0503 69.4698 20.145 69.463 20.2037 69.4437 20.2363 69.0877 20.2819 68.7971 20.3343 68.578 20.3961 68.3595 20.4551 68.1795 20.5466 68.0391 20.6705 67.9022 20.7916 67.775 20.9679 67.6604 21.1932 67.5462 21.4217 67.4155 21.7287 67.2687 22.1074 67.1542 22.3982 67.0139 22.767 66.8472 23.2081 66.6842 23.652 66.5045 24.1418 66.312 24.6776 66.119 25.213 65.9231 25.7618 65.7241 26.3234 65.5248 26.8883 65.3287 27.4368 65.1427 27.966 64.9565 28.4981 64.7836 28.9817 64.6299 29.416 64.4766 29.8502 64.3524 30.2094 64.2512 30.4872 64.1925 30.6601 64.1305 30.8432 64.0715 31.0422 64.0094 31.2381 63.9607 31.4209 63.9179 31.5811 63.8201 31.5711 63.7027 31.5615 63.559 31.555 63.415 31.5451 63.2421 31.542 63.0363 31.542 62.8699 31.542 62.7097 31.5451 62.5595 31.555 62.4093 31.5615 62.2723 31.5711 62.1547 31.5811 62.1417 31.4734 62.1156 31.3461 62.0762 31.1956 62.0371 31.0456 61.9911 30.8889 61.9393 30.7287 61.8868 30.5719 61.8347 30.4248 61.7825 30.291 61.704 30.0591 61.5929 29.7524 61.456 29.3669 61.3188 28.9848 61.1586 28.5471 60.9823 28.0607 60.8026 27.574 60.6098 27.0581 60.4074 26.5161 60.2016 25.9739 59.993 25.4254 59.7838 24.8766 59.5715 24.3249 59.3626 23.796 59.1602 23.2863 58.9578 22.7769 58.765 22.3098 58.5884 21.892 58.4546 21.5685 58.3308 21.3106 58.2097 21.1116 58.0924 20.9154 57.9583 20.7587 57.8081 20.651 57.6578 20.5398 57.4719 20.4551 57.2465 20.3961 57.0212 20.3343 56.7371 20.2819 56.3941 20.2363ZM62.2919 28.9817C62.367 28.7858 62.4518 28.554 62.5465 28.2892 62.6411 28.0247 62.7392 27.7441 62.8404 27.4499 62.945 27.1562 63.0428 26.8622 63.1409 26.5748 63.2356 26.2874 63.3271 26.0198 63.4054 25.7749 63.487 25.5266 63.5525 25.3208 63.6046 25.1544 63.6046 25.1314 63.5947 25.1084 63.5817 25.0792 63.5689 25.0532 63.5556 25.0401 63.5457 25.0367 63.4805 25.0302 63.3793 25.0268 63.2486 25.0237 63.1179 25.0203 62.9646 25.0172 62.7914 25.0172 62.6185 25.0172 62.4322 25.0172 62.2329 25.0172 61.9294 25.0172 61.668 25.0172 61.4492 25.0203 61.2337 25.0203 61.0705 25.0268 60.9596 25.0367 60.9398 25.0466 60.9267 25.0628 60.9168 25.0824 60.9103 25.1053 60.9103 25.1348 60.9202 25.1739 60.9987 25.4123 61.0934 25.6932 61.2011 26.0133 61.3123 26.3364 61.4265 26.6763 61.5441 27.032 61.6646 27.3847 61.7825 27.7311 61.8999 28.0672 62.0144 28.4068 62.1187 28.7073 62.2134 28.9752 62.223 28.9882 62.2363 28.9913 62.2525 28.9882 62.2689 28.9848 62.282 28.9848 62.2919 28.9817ZM69.6005 30.9736C69.8941 30.928 70.1589 30.8789 70.3908 30.8333 70.6258 30.7908 70.825 30.7383 70.9914 30.6797 71.1286 30.6275 71.2332 30.549 71.3115 30.4512 71.3866 30.35 71.439 30.242 71.4682 30.1212 71.4974 30.0005 71.5073 29.8797 71.5008 29.759 71.4878 29.4846 71.4651 29.1319 71.4356 28.7042 71.4061 28.2762 71.3738 27.8028 71.331 27.2835 71.2919 26.7642 71.2497 26.2352 71.2037 25.6898 71.1547 25.1413 71.1091 24.6155 71.0634 24.1027 71.0178 23.5899 70.9719 23.1296 70.9294 22.7117 70.8871 22.297 70.8477 21.964 70.8151 21.7057 70.7791 21.4087 70.727 21.1734 70.6618 21.0005 70.5966 20.8273 70.505 20.6935 70.3874 20.6019 70.2731 20.5106 70.1195 20.442 69.9333 20.393 69.7963 20.357 69.6461 20.3278 69.4794 20.308 69.3162 20.2884 69.1398 20.2623 68.9536 20.2363 68.9275 20.2003 68.9114 20.1351 68.9049 20.0469 68.9017 19.9587 68.9017 19.8672 68.9114 19.779 68.921 19.6909 68.934 19.6257 68.9536 19.5897 69.1594 19.5897 69.3882 19.5962 69.6427 19.6061 69.8975 19.6157 70.1651 19.6223 70.446 19.6322 70.7304 19.6418 71.0144 19.6483 71.3049 19.6483 71.8994 19.6452 72.4088 19.6353 72.83 19.6191 73.2512 19.6027 73.6007 19.5931 73.8717 19.5897 73.9046 19.6223 73.9304 19.6812 73.9468 19.7759 73.9633 19.8672 73.9698 19.9587 73.9664 20.0503 73.9599 20.145 73.9437 20.2037 73.9108 20.2363 73.6333 20.2723 73.3952 20.308 73.2056 20.3374 73.0128 20.3703 72.8368 20.416 72.6766 20.4715 72.4904 20.5268 72.3467 20.6053 72.2455 20.6969 72.1474 20.7916 72.0791 20.9154 72.0431 21.0691 72.0071 21.2193 71.9875 21.4152 71.9906 21.6471 71.9906 21.8951 71.9974 22.2055 72.0071 22.5746 72.017 22.9467 72.0332 23.3518 72.0527 23.796 72.0692 24.243 72.0918 24.7003 72.1148 25.1708 72.1409 25.6442 72.1638 26.1045 72.1899 26.5586 72.216 27.0091 72.2421 27.4272 72.2682 27.8124 72.2945 28.1979 72.3206 28.5276 72.3433 28.7989 72.3532 28.8085 72.3662 28.8181 72.3861 28.8247 72.4022 28.8346 72.4218 28.838 72.4416 28.838 72.7223 28.1653 73.0128 27.4697 73.3164 26.7576 73.6172 26.0425 73.9176 25.3372 74.2113 24.6385 74.5053 23.9428 74.7797 23.2798 75.0376 22.6497 75.2956 22.0226 75.5209 21.4577 75.7137 20.9514 75.903 20.4486 76.0501 20.0339 76.1448 19.7073 76.1675 19.6974 76.2131 19.6909 76.2851 19.6843 76.36 19.6812 76.4385 19.6778 76.5298 19.6812 76.6182 19.6812 76.6998 19.6843 76.775 19.6943 76.8501 19.7008 76.9022 19.7138 76.9283 19.7269 77.0134 19.9718 77.1375 20.2853 77.294 20.6705 77.4507 21.0526 77.6339 21.4838 77.8397 21.9606 78.0483 22.4374 78.2674 22.9371 78.4993 23.4626 78.7343 23.9854 78.9693 24.5109 79.2045 25.0336 79.4429 25.5591 79.6683 26.062 79.8871 26.5422 80.1026 27.019 80.3018 27.4533 80.4747 27.8419 80.6513 28.2305 80.7948 28.5471 80.9059 28.7989 80.9189 28.8085 80.9351 28.815 80.9549 28.815 80.9779 28.815 80.994 28.8085 81.0037 28.7989 81.0037 28.4885 81.0037 28.1259 81.0071 27.7112 81.0102 27.2965 81.0102 26.8557 81.0136 26.382 81.017 25.9121 81.017 25.4319 81.0201 24.9486 81.0201 24.4653 81.0201 23.9984 81.0235 23.5477 81.0235 23.097 81.0201 22.6854 81.017 22.3163 81.017 21.9441 81.0102 21.6371 81.0037 21.3922 81.0071 21.1277 80.9779 20.922 80.9124 20.7686 80.8472 20.615 80.7265 20.5106 80.5533 20.452 80.4291 20.406 80.2823 20.3669 80.1159 20.3374 79.9489 20.308 79.7499 20.2723 79.5146 20.2363 79.4951 20.2003 79.482 20.1351 79.4755 20.0469 79.469 19.9587 79.469 19.8672 79.4755 19.779 79.482 19.6909 79.4951 19.6257 79.5146 19.5897 79.8871 19.5931 80.2987 19.6027 80.7523 19.6191 81.2061 19.6353 81.6996 19.6452 82.2385 19.6483 82.7969 19.6483 83.2669 19.6418 83.6558 19.6322 84.0407 19.6223 84.3673 19.6157 84.632 19.6061 84.8965 19.5962 85.1219 19.5897 85.3146 19.5897 85.3472 19.6257 85.3699 19.6877 85.3863 19.7759 85.4025 19.8607 85.409 19.9491 85.4059 20.037 85.4025 20.1285 85.3929 20.1937 85.373 20.2363 85.138 20.2657 84.9291 20.2983 84.7429 20.3343 84.5569 20.3703 84.3936 20.4026 84.2564 20.4321 84.0767 20.478 83.9364 20.5498 83.8383 20.651 83.7405 20.7522 83.6719 20.8763 83.6294 21.0231 83.5869 21.1703 83.5608 21.3401 83.5512 21.5294 83.5379 21.7253 83.5217 21.9932 83.5055 22.3393 83.4922 22.6823 83.4761 23.0774 83.4596 23.5216 83.4432 23.9655 83.427 24.4361 83.414 24.9321 83.3975 25.4254 83.3845 25.9217 83.3749 26.4149 83.3615 26.9113 83.3516 27.3815 83.3454 27.8257 83.3357 28.2696 83.3321 28.6648 83.3292 29.0078 83.3292 29.3539 83.3292 29.6249 83.3357 29.8176 83.3321 29.9744 83.3454 30.1116 83.3749 30.2323 83.4009 30.35 83.4528 30.4512 83.5347 30.5359 83.613 30.6179 83.7306 30.6862 83.884 30.7383 84.0212 30.7777 84.1847 30.8169 84.3806 30.856 84.5731 30.8954 84.8083 30.9345 85.0793 30.9736 85.1054 30.9966 85.1219 31.0391 85.1349 31.1009 85.1477 31.1598 85.1545 31.2284 85.1545 31.3036 85.1545 31.3753 85.1477 31.4408 85.1349 31.496 85.1219 31.555 85.1054 31.5876 85.0793 31.6006 84.8183 31.6006 84.5603 31.5972 84.299 31.591 84.0407 31.5845 83.7598 31.578 83.4596 31.5711 83.1557 31.5646 82.8096 31.5581 82.4179 31.5516 82.0259 31.5451 81.5686 31.542 81.0431 31.542 81.03 31.3849 80.9909 31.2055 80.9254 31.0096 80.8603 30.8103 80.7817 30.6045 80.6905 30.386 80.5759 30.1212 80.4322 29.7947 80.2593 29.4094 80.083 29.0208 79.8905 28.603 79.6813 28.1523 79.4721 27.7016 79.2601 27.2475 79.0413 26.7871 78.8258 26.3299 78.6166 25.8922 78.4208 25.4809 78.2246 25.0693 78.0483 24.7068 77.898 24.3967 77.7481 24.0866 77.6339 23.8547 77.5553 23.7044 77.5358 23.6945 77.5162 23.6849 77.4964 23.6815 77.4771 23.6784 77.4575 23.6849 77.438 23.7044 77.3626 23.8547 77.2549 24.0735 77.1146 24.3641 76.9774 24.6512 76.8172 24.9877 76.6344 25.3732 76.4549 25.7584 76.2622 26.1666 76.0598 26.6043 75.8574 27.0417 75.6513 27.4827 75.4458 27.9269 75.24 28.3711 75.0407 28.7989 74.8514 29.2102 74.6651 29.6218 74.4956 29.994 74.342 30.327 74.2535 30.5425 74.1756 30.7483 74.1132 30.9509 74.0511 31.1499 74.0089 31.3461 73.9894 31.542 73.3524 31.542 72.7841 31.5485 72.2846 31.5581 71.7817 31.568 71.318 31.5746 70.8968 31.5845 70.4721 31.5941 70.0608 31.6006 69.6591 31.6006 69.6396 31.5811 69.62 31.5289 69.6036 31.4439 69.5906 31.3557 69.5806 31.2644 69.5772 31.1729 69.5741 31.0782 69.5806 31.0127 69.6005 30.9736ZM85.138 20.2363C85.1187 20.1937 85.1054 20.1285 85.0989 20.037 85.0924 19.9491 85.0924 19.8607 85.0989 19.7759 85.1054 19.6877 85.1187 19.6257 85.138 19.5897 85.432 19.5931 85.765 19.6027 86.1307 19.6191 86.4967 19.6353 86.8915 19.6452 87.313 19.6483 87.8811 19.6452 88.3743 19.6353 88.7922 19.6191 89.2103 19.6027 89.5465 19.5931 89.8013 19.5897 89.8211 19.6223 89.8407 19.6812 89.8569 19.7759 89.873 19.8672 89.8829 19.9587 89.8829 20.0503 89.8863 20.145 89.8798 20.2037 89.8603 20.2363 89.6771 20.2558 89.5076 20.2819 89.3506 20.3114 89.1975 20.3409 89.047 20.3734 88.9002 20.4126 88.727 20.452 88.5997 20.5072 88.518 20.5727 88.4364 20.6413 88.384 20.7162 88.3613 20.8046 88.3383 20.8928 88.3287 20.984 88.3321 21.0821 88.3352 21.1799 88.3613 21.327 88.4134 21.5198 88.4656 21.7157 88.5376 21.941 88.6226 22.1924 88.7074 22.447 88.7956 22.7083 88.8936 22.9793 88.9917 23.2537 89.0864 23.5117 89.1743 23.7631 89.1975 23.8056 89.2267 23.8448 89.2689 23.8808 89.3083 23.9165 89.3506 23.9363 89.39 23.9394 89.4716 23.946 89.5759 23.9494 89.7066 23.9525 89.8342 23.9559 89.9972 23.959 90.1998 23.959 90.3988 23.959 90.6537 23.959 90.9573 23.959 91.1764 23.959 91.3887 23.9624 91.5973 23.9624 91.8065 23.9655 91.9959 23.9689 92.1657 23.9689 92.3389 23.9689 92.4758 23.9655 92.5838 23.959 92.6164 23.9559 92.649 23.9394 92.6881 23.9068 92.7244 23.8708 92.7468 23.8448 92.7601 23.8218 92.8352 23.6293 92.92 23.4071 93.0146 23.1491 93.1093 22.8946 93.2074 22.6267 93.3052 22.3492 93.4002 22.0717 93.488 21.8069 93.57 21.5558 93.6516 21.3041 93.7134 21.0886 93.7593 20.9058 93.7823 20.8437 93.7823 20.772 93.7562 20.6904 93.7332 20.6084 93.6677 20.5333 93.5634 20.4715 93.4523 20.4225 93.3086 20.38 93.1292 20.3409 92.9526 20.3014 92.7632 20.2657 92.5642 20.2363 92.5381 20.2003 92.5248 20.1351 92.5214 20.0469 92.5183 19.9587 92.5214 19.8672 92.5279 19.779 92.5381 19.6909 92.5509 19.6257 92.5642 19.5897 92.77 19.5962 93.0081 19.6061 93.2729 19.6126 93.5371 19.6223 93.8441 19.6322 94.197 19.6387 94.5462 19.6452 94.9581 19.6483 95.4249 19.6483 96.0712 19.6452 96.62 19.6353 97.0707 19.6191 97.5214 19.6027 97.8741 19.5931 98.1289 19.5897 98.1482 19.6223 98.168 19.6812 98.1842 19.7759 98.2006 19.8672 98.2106 19.9587 98.2106 20.0503 98.2137 20.145 98.2069 20.2037 98.1873 20.2363 97.8316 20.2819 97.541 20.3343 97.3219 20.3961 97.1033 20.4551 96.9236 20.5466 96.7833 20.6705 96.6461 20.7916 96.5188 20.9679 96.4046 21.1932 96.2904 21.4217 96.1597 21.7287 96.0129 22.1074 95.8983 22.3982 95.758 22.767 95.5913 23.2081 95.4281 23.652 95.2486 24.1418 95.0559 24.6776 94.8631 25.213 94.6672 25.7618 94.468 26.3234 94.2687 26.8883 94.0728 27.4368 93.8869 27.966 93.7006 28.4981 93.5274 28.9817 93.3741 29.416 93.2204 29.8502 93.0966 30.2094 92.9951 30.4872 92.9364 30.6601 92.8743 30.8432 92.8157 31.0422 92.7533 31.2381 92.7045 31.4209 92.662 31.5811 92.5642 31.5711 92.4466 31.5615 92.3031 31.555 92.1591 31.5451 91.9862 31.542 91.7804 31.542 91.6138 31.542 91.4539 31.5451 91.3037 31.555 91.1534 31.5615 91.0162 31.5711 90.8986 31.5811 90.8858 31.4734 90.8595 31.3461 90.8203 31.1956 90.7812 31.0456 90.7353 30.8889 90.6831 30.7287 90.6307 30.5719 90.5788 30.4248 90.5264 30.291 90.4482 30.0591 90.337 29.7524 90.1998 29.3669 90.0626 28.9848 89.9025 28.5471 89.7262 28.0607 89.5465 27.574 89.354 27.0581 89.1516 26.5161 88.9458 25.9739 88.7369 25.4254 88.528 24.8766 88.3154 24.3249 88.1065 23.796 87.9041 23.2863 87.7017 22.7769 87.5089 22.3098 87.3326 21.892 87.1985 21.5685 87.0746 21.3106 86.9539 21.1116 86.8363 20.9154 86.7025 20.7587 86.5522 20.651 86.402 20.5398 86.216 20.4551 85.9904 20.3961 85.765 20.3343 85.481 20.2819 85.138 20.2363ZM91.0358 28.9817C91.1109 28.7858 91.1957 28.554 91.2903 28.2892 91.385 28.0247 91.4834 27.7441 91.5846 27.4499 91.6889 27.1562 91.7867 26.8622 91.8848 26.5748 91.9794 26.2874 92.071 26.0198 92.1492 25.7749 92.2309 25.5266 92.2963 25.3208 92.3488 25.1544 92.3488 25.1314 92.3389 25.1084 92.3255 25.0792 92.3128 25.0532 92.2997 25.0401 92.2898 25.0367 92.2243 25.0302 92.1231 25.0268 91.9925 25.0237 91.8621 25.0203 91.7087 25.0172 91.5355 25.0172 91.3623 25.0172 91.1764 25.0172 90.9771 25.0172 90.6735 25.0172 90.4122 25.0172 90.1933 25.0203 89.9776 25.0203 89.8146 25.0268 89.7035 25.0367 89.6839 25.0466 89.6706 25.0628 89.661 25.0824 89.6545 25.1053 89.6545 25.1348 89.6644 25.1739 89.7426 25.4123 89.8373 25.6932 89.9453 26.0133 90.0561 26.3364 90.1704 26.6763 90.288 27.032 90.4088 27.3847 90.5264 27.7311 90.644 28.0672 90.7583 28.4068 90.8626 28.7073 90.9573 28.9752 90.9672 28.9882 90.9805 28.9913 90.9967 28.9882 91.0128 28.9848 91.0261 28.9848 91.0358 28.9817" fill="#231f20"/>
<path transform="matrix(1,0,0,-1,0,42.5197)" d="M98.0702 30.954C98.3608 30.9246 98.6122 30.8854 98.8277 30.8333 99.04 30.7777 99.239 30.7091 99.4221 30.621 99.5723 30.5524 99.6962 30.4543 99.7909 30.327 99.8855 30.1963 99.9575 30.056 100.0001 29.9058 100.0457 29.7524 100.0687 29.6053 100.0687 29.4647 100.0653 28.802 100.0587 28.1424 100.0522 27.4793 100.0457 26.8166 100.0358 26.1797 100.0261 25.5626 100.0128 24.9454 100.0032 24.3737 99.987 23.8482 99.974 23.3223 99.9544 22.8651 99.938 22.4734 99.9184 22.0813 99.8955 21.7809 99.8725 21.5685 99.8464 21.2389 99.7781 20.9874 99.6701 20.8108 99.5624 20.6379 99.3991 20.5172 99.1868 20.452 99.0238 20.3961 98.8503 20.3505 98.674 20.3213 98.4977 20.2918 98.3018 20.2623 98.0895 20.2363 98.0702 20.2037 98.0569 20.145 98.047 20.0503 98.0374 19.9587 98.0374 19.8672 98.0405 19.7759 98.047 19.6812 98.0637 19.6223 98.0895 19.5897 98.3673 19.5931 98.7134 19.6027 99.1346 19.6191 99.5559 19.6353 100.0358 19.6452 100.578 19.6483 101.0614 19.6452 101.5152 19.6353 101.9364 19.6191 102.361 19.6027 102.7301 19.5931 103.047 19.5897 103.0793 19.6257 103.1023 19.6909 103.1122 19.7824 103.125 19.8737 103.1284 19.9653 103.125 20.0568 103.1185 20.145 103.1057 20.2068 103.0861 20.2363 102.8443 20.2657 102.6289 20.2949 102.4427 20.3278 102.2564 20.357 102.0835 20.393 101.9299 20.4321 101.7471 20.4681 101.5937 20.5333 101.4729 20.6215 101.3485 20.7096 101.2538 20.8403 101.1855 21.007 101.12 21.1734 101.0809 21.3956 101.0676 21.6666 101.058 21.82 101.0483 22.0521 101.0418 22.3588 101.0353 22.6658 101.0285 23.0284 101.022 23.44 101.0188 23.8547 101.0123 24.2955 101.0123 24.7689 101.0092 25.2391 101.0092 25.7128 101.0092 26.1961 101.0092 26.6763 101.0092 27.1366 101.0123 27.5805 101.0157 28.0216 101.022 28.4233 101.0285 28.779 101.0285 28.7923 101.0418 28.802 101.0614 28.8085 101.0843 28.815 101.1036 28.8054 101.1266 28.779 101.3094 28.544 101.5512 28.2339 101.8551 27.8419 102.1584 27.4533 102.5014 27.0091 102.8866 26.5127 103.2687 26.0198 103.6706 25.4974 104.0919 24.952 104.5162 24.4032 104.9343 23.8578 105.3556 23.3124 105.7734 22.7639 106.1688 22.2446 106.5444 21.7548 106.9197 21.2615 107.2531 20.8208 107.5405 20.4355 107.8311 20.0469 108.0561 19.7399 108.2197 19.5114 108.3076 19.5211 108.4317 19.5307 108.5953 19.5375 108.7583 19.544 108.9315 19.5471 109.1174 19.5506 109.3005 19.5537 109.4734 19.5537 109.6302 19.5506 109.7872 19.5471 109.9046 19.5406 109.9831 19.5307 109.9763 19.7626 109.9698 20.0339 109.9636 20.3409 109.9568 20.6478 109.9536 20.9645 109.9502 21.2944 109.9468 21.6241 109.9437 21.9376 109.9437 22.2347 109.9468 22.9629 109.9536 23.6784 109.9602 24.3802 109.9667 25.0858 109.9763 25.7584 109.9862 26.4019 109.9959 27.0451 110.0126 27.6395 110.0288 28.188 110.0483 28.7399 110.071 29.2232 110.1005 29.6413 110.1266 29.8797 110.1657 30.0756 110.2212 30.2258 110.2768 30.3727 110.3618 30.4937 110.4695 30.5819 110.5773 30.67 110.7241 30.7417 110.9038 30.7973 111.028 30.8364 111.1555 30.869 111.2825 30.892 111.4101 30.918 111.5535 30.9475 111.7074 30.9736 111.7267 31.0062 111.7397 31.0683 111.7463 31.1598 111.7531 31.2511 111.7531 31.3393 111.7463 31.4308 111.7397 31.519 111.7267 31.5746 111.7074 31.6006 111.5864 31.6006 111.4132 31.5941 111.1847 31.5845 110.956 31.5746 110.6983 31.568 110.4009 31.5581 110.107 31.5485 109.7969 31.542 109.4734 31.542 108.8561 31.5451 108.3243 31.555 107.8832 31.5711 107.4393 31.5876 107.096 31.5972 106.848 31.6006 106.8347 31.5876 106.8219 31.555 106.8123 31.496 106.8024 31.4408 106.7958 31.3753 106.7958 31.3036 106.7924 31.2284 106.7924 31.1598 106.799 31.1009 106.8058 31.0391 106.8154 30.9966 106.8282 30.9736 107.0799 30.9444 107.3018 30.9149 107.4977 30.882 107.6905 30.8463 107.8798 30.8072 108.0629 30.7582 108.2653 30.7091 108.4221 30.6371 108.5397 30.549 108.6537 30.4577 108.7421 30.3435 108.7977 30.1997 108.8532 30.056 108.8889 29.8763 108.9054 29.6609 108.9346 29.3278 108.9544 28.9097 108.9675 28.41 108.9802 27.9105 108.9867 27.3552 108.9901 26.748 108.9901 26.1439 108.9901 25.5135 108.9867 24.8638 108.9867 24.2138 108.9836 23.5738 108.9836 22.9402 108.974 22.9402 108.9641 22.9371 108.9544 22.9306 108.9445 22.9241 108.9346 22.9207 108.9249 22.9207 108.7226 23.1559 108.4742 23.4561 108.174 23.8187 107.8767 24.1778 107.5467 24.5829 107.1845 25.0302 106.8219 25.4775 106.4463 25.9447 106.0543 26.4345 105.6626 26.9209 105.2739 27.411 104.8856 27.8974 104.4967 28.3873 104.1279 28.851 103.7784 29.2983 103.4289 29.7425 103.1122 30.1442 102.8313 30.5033 102.6811 30.6862 102.56 30.8398 102.4654 30.9671 102.3707 31.0944 102.2924 31.2055 102.2372 31.3036 102.1816 31.3982 102.1388 31.4929 102.1065 31.5811 101.982 31.5711 101.8094 31.5615 101.5807 31.555 101.3522 31.5451 101.1036 31.542 100.8326 31.542 100.2515 31.5451 99.7291 31.5581 99.2619 31.578 98.7985 31.6006 98.4064 31.6071 98.0895 31.6006 98.0702 31.5746 98.0538 31.5156 98.047 31.4243 98.0374 31.3328 98.0342 31.2381 98.0374 31.1434 98.0405 31.0487 98.0504 30.9866 98.0702 30.954ZM121.1905 20.2167C120.9651 20.2493 120.7726 20.2754 120.6159 20.2949 120.4591 20.3148 120.3219 20.3374 120.2046 20.3604 120.09 20.3831 119.9789 20.4126 119.8777 20.452 119.6785 20.5203 119.5381 20.6379 119.4633 20.7981 119.3882 20.9614 119.3423 21.1669 119.3292 21.4121 119.3196 21.6045 119.3131 21.8951 119.3063 22.2806 119.3 22.6658 119.2966 23.1165 119.2935 23.6358 119.2901 24.1549 119.2867 24.7102 119.2867 25.3046 119.2867 25.899 119.2867 26.4997 119.2867 27.1103 119.2867 27.7211 119.2867 28.3122 119.2901 28.8836 119.2901 29.452 119.2901 29.9744 119.2901 30.4447 119.2901 30.4838 119.3 30.5198 119.3162 30.5459 119.3292 30.5719 119.3488 30.5915 119.3683 30.6014 119.4599 30.6079 119.5968 30.6111 119.7831 30.6145 119.9662 30.621 120.1717 30.621 120.397 30.6244 120.6258 30.6244 120.8477 30.6244 121.0731 30.621 121.2953 30.6179 121.4912 30.6111 121.661 30.6014 121.8472 30.585 121.9972 30.5328 122.1148 30.4447 122.2322 30.3565 122.3303 30.2063 122.4057 29.994 122.4935 29.7686 122.5687 29.5106 122.6276 29.2167 122.6894 28.9261 122.7387 28.603 122.7779 28.2501 122.794 28.2305 122.8365 28.2175 122.902 28.211 122.9669 28.201 123.0423 28.1979 123.124 28.201 123.2056 28.2044 123.2807 28.211 123.349 28.224 123.4145 28.2339 123.4604 28.2501 123.4831 28.2696 123.5092 28.6812 123.5452 29.0959 123.5911 29.5138 123.6368 29.9353 123.6923 30.3301 123.7541 30.7026 123.8131 31.0748 123.8814 31.3948 123.9534 31.6593 123.9435 31.6823 123.9205 31.7117 123.8913 31.7443 123.8587 31.7769 123.8292 31.7934 123.7966 31.7965 123.6234 31.7378 123.4375 31.6888 123.2382 31.6528 123.0423 31.6137 122.817 31.5876 122.5655 31.568 122.3141 31.5516 122.0168 31.542 121.6806 31.542H114.6461C114.3686 31.5386 114.078 31.5581 113.7776 31.5972 113.4774 31.6366 113.19 31.7117 112.9221 31.8161 112.8895 31.8226 112.847 31.8095 112.8013 31.7803 112.7554 31.7475 112.7293 31.7214 112.7259 31.6984 112.7098 31.4799 112.6902 31.225 112.6641 30.9345 112.6346 30.6437 112.602 30.3435 112.5663 30.03 112.53 29.7196 112.494 29.4225 112.4549 29.1382 112.4127 28.8575 112.3736 28.6126 112.3342 28.4068 112.3475 28.3711 112.3832 28.3416 112.4484 28.3088 112.5108 28.2796 112.5825 28.2566 112.6641 28.237 112.7426 28.2206 112.8175 28.2076 112.8861 28.2044 112.9547 28.2044 112.9972 28.211 113.0202 28.2305 113.1375 28.5766 113.2583 28.8935 113.3827 29.1872 113.5066 29.4812 113.6276 29.7391 113.745 29.9548 113.8691 30.1867 114.0063 30.35 114.1532 30.4478 114.3003 30.5459 114.4735 30.5949 114.666 30.6014 114.8031 30.6079 114.9695 30.6111 115.1688 30.6145 115.3647 30.6145 115.5705 30.6179 115.7797 30.6179 115.9917 30.6179 116.1845 30.6145 116.3608 30.6145 116.5371 30.6111 116.6709 30.6079 116.7625 30.6014 116.7854 30.598 116.805 30.5753 116.8277 30.5393 116.8472 30.5002 116.8605 30.4673 116.8605 30.4447 116.8605 29.8176 116.8605 29.1742 116.8637 28.5114 116.8637 27.8518 116.8637 27.1953 116.8637 26.5422 116.8637 25.8891 116.8605 25.2621 116.8571 24.6577 116.854 24.0571 116.8472 23.5052 116.8376 22.9989 116.8311 22.4929 116.818 22.0552 116.8016 21.6862 116.7917 21.3956 116.7625 21.1637 116.7202 20.9906 116.6743 20.8176 116.6023 20.687 116.5011 20.5988 116.3999 20.5106 116.2596 20.4486 116.0768 20.4126 115.9364 20.3734 115.7468 20.3374 115.5149 20.308 115.2831 20.2754 115.0316 20.2462 114.764 20.2167 114.7377 20.1872 114.7184 20.1285 114.7085 20.0404 114.6951 19.9553 114.6951 19.8672 114.702 19.779 114.7116 19.6909 114.7311 19.6257 114.764 19.5897 115.0642 19.5931 115.4789 19.6027 116.0144 19.6191 116.5467 19.6353 117.2293 19.6452 118.0556 19.6483 118.7056 19.6452 119.2935 19.6353 119.8159 19.6191 120.3384 19.6027 120.776 19.5931 121.1318 19.5897 121.1647 19.6223 121.1905 19.6812 121.2069 19.7694 121.2265 19.8575 121.2333 19.9491 121.2333 20.037 121.2299 20.1251 121.2168 20.1841 121.1905 20.2167ZM125.0901 30.9736C125.2956 30.954 125.4818 30.9311 125.6547 30.9019 125.8248 30.8724 125.9813 30.8364 126.1281 30.7973 126.2588 30.7613 126.36 30.7125 126.4351 30.6502 126.5102 30.5915 126.5692 30.5033 126.6049 30.3891 126.6409 30.2749 126.6639 30.1147 126.6769 29.9154 126.6868 29.7655 126.6965 29.5597 126.703 29.3017 126.7095 29.0404 126.716 28.7399 126.7226 28.4034 126.7257 28.0641 126.7294 27.7047 126.7325 27.3195 126.7356 26.9374 126.7356 26.5487 126.7356 26.1536 126.7356 25.0432 126.7356 24.0897 126.7294 23.2963 126.7226 22.4994 126.7061 21.8854 126.6769 21.4509 126.6704 21.2323 126.6477 21.0526 126.6018 20.9188 126.5593 20.7816 126.4972 20.677 126.4124 20.6053 126.3277 20.5333 126.2197 20.4812 126.0893 20.452 125.9419 20.4126 125.7429 20.3734 125.498 20.3374 125.25 20.2983 124.9656 20.2657 124.6391 20.2363 124.6195 20.2003 124.6065 20.1385 124.6 20.0503 124.5934 19.9653 124.5934 19.8771 124.6 19.7889 124.6065 19.6974 124.6195 19.6322 124.6391 19.5897 124.969 19.5897 125.3217 19.5962 125.7004 19.6061 126.0794 19.6157 126.4646 19.6257 126.8563 19.6322 127.2518 19.6418 127.6339 19.6483 128.0092 19.6483 128.7017 19.6483 129.3582 19.6418 129.9784 19.6291 130.602 19.6157 131.1996 19.6027 131.7747 19.5897 132.3493 19.5766 132.9111 19.5701 133.4563 19.5701 133.7471 19.5701 133.9625 19.5831 134.1128 19.6092 134.2599 19.6322 134.3611 19.6679 134.4229 19.7138 134.4818 19.7626 134.5241 19.8184 134.5535 19.8836 134.6156 20.0109 134.6842 20.1742 134.7528 20.3703 134.8245 20.5628 134.8934 20.7751 134.9649 21.0005 135.0337 21.2258 135.0989 21.4478 135.161 21.6666 135.22 21.8886 135.2752 22.0878 135.3178 22.2676 135.3634 22.4439 135.3963 22.5842 135.4158 22.6854 135.3864 22.7248 135.3243 22.767 135.2327 22.8095 135.1446 22.8487 135.0533 22.8847 134.9586 22.9076 134.8639 22.9337 134.7922 22.9467 134.7494 22.9402 134.6516 22.7149 134.547 22.4929 134.4328 22.2741 134.3217 22.0521 134.2043 21.8463 134.0864 21.6536 133.969 21.4608 133.8483 21.2975 133.7306 21.1572 133.6003 20.9971 133.4696 20.8732 133.342 20.785 133.2147 20.7 133.0645 20.6413 132.8848 20.6084 132.7054 20.5727 132.4732 20.5532 132.1829 20.5498 131.9312 20.5498 131.6733 20.5532 131.4119 20.5597 131.1508 20.5662 130.8994 20.5758 130.661 20.5892 130.4226 20.6019 130.2103 20.615 130.0241 20.6314 129.8412 20.6478 129.6975 20.6674 129.5963 20.687 129.4753 20.7196 129.3744 20.7981 129.2927 20.9188 129.2111 21.0427 129.1686 21.1932 129.1652 21.3727 129.1652 21.6111 129.1652 21.8789 129.162 22.1794 129.162 22.4765 129.1586 22.79 129.1586 23.1165 129.1555 23.4431 129.1555 23.7665 129.1555 24.0831 129.1586 24.4032 129.162 24.7003 129.1652 24.9778 129.1652 25.0007 129.1782 25.0336 129.2014 25.0727 129.2241 25.1084 129.2536 25.1314 129.2828 25.1348 129.4461 25.1348 129.6488 25.1348 129.8937 25.1348 130.1383 25.1348 130.3934 25.1314 130.661 25.1314 130.9255 25.1283 131.1673 25.1249 131.3892 25.1184 131.6078 25.1118 131.7747 25.1053 131.8887 25.0954 132.0914 25.0727 132.2416 25.0106 132.3397 24.9094 132.4375 24.8083 132.5095 24.6872 132.5551 24.5469 132.5812 24.4684 132.5974 24.4001 132.6107 24.3476 132.6234 24.2955 132.6368 24.2237 132.6563 24.1387 132.6759 24.0537 132.7085 23.923 132.751 23.7436 132.7901 23.7175 132.8587 23.701 132.9599 23.6976 133.0645 23.6911 133.1657 23.6945 133.2669 23.7076 133.3684 23.7175 133.4401 23.737 133.4761 23.7631 133.4696 23.9363 133.4628 24.1322 133.4563 24.3476 133.4529 24.5631 133.4463 24.7853 133.4432 25.0138 133.4401 25.2425 133.4367 25.458 133.4367 25.6637 133.4367 25.8826 133.4463 26.1079 133.4597 26.3398 133.4727 26.5717 133.4889 26.7902 133.5056 26.9994 133.5251 27.2117 133.5413 27.3912 133.5543 27.5445 133.5183 27.5709 133.4463 27.5939 133.3454 27.6069 133.2408 27.6231 133.1396 27.6296 133.035 27.6265 132.9304 27.6231 132.8553 27.61 132.8097 27.5839 132.7805 27.4567 132.7541 27.3291 132.728 27.2083 132.702 27.0842 132.6725 26.9668 132.6334 26.8591 132.5778 26.6434 132.5027 26.4866 132.4015 26.382 132.3003 26.2777 132.15 26.2222 131.9477 26.2123 131.7813 26.1992 131.582 26.1862 131.3436 26.1831 131.1083 26.1765 130.8603 26.1731 130.602 26.1697 130.3407 26.1697 130.0961 26.1697 129.8642 26.1697 129.6323 26.1731 129.4396 26.1731 129.2828 26.1731 129.2536 26.1731 129.2241 26.1896 129.2014 26.2222 129.1782 26.2517 129.1652 26.2874 129.1652 26.3299 129.1586 26.725 129.1555 27.1497 129.1521 27.597 129.1487 28.0477 129.1487 28.5015 129.1521 28.9553 129.1555 29.4094 129.1586 29.8406 129.1652 30.2488 129.1652 30.2845 129.1751 30.327 129.1946 30.3792 129.2142 30.4316 129.2403 30.4807 129.2732 30.5232 129.3058 30.5654 129.3418 30.5915 129.3806 30.6014 129.4396 30.6111 129.5572 30.6145 129.7335 30.621 129.9098 30.6244 130.1187 30.6275 130.3574 30.6309 130.5958 30.6309 130.8373 30.6309 131.0854 30.6309 131.3303 30.6275 131.5559 30.6244 131.7549 30.621 131.9542 30.6145 132.1044 30.6111 132.2025 30.6014 132.3981 30.585 132.565 30.5359 132.7054 30.4478 132.8426 30.3596 132.9568 30.2159 133.0447 30.0135 133.1135 29.8633 133.1722 29.6804 133.2244 29.4681 133.2768 29.2558 133.3191 28.9783 133.3582 28.6418 133.3976 28.6223 133.4662 28.6126 133.564 28.6092 133.662 28.6061 133.7598 28.6126 133.8579 28.6288 133.9591 28.6452 134.0246 28.6682 134.064 28.7008 134.0799 28.9488 134.0963 29.2071 134.1193 29.478 134.1388 29.749 134.1652 30.0166 134.191 30.278 134.2171 30.5393 134.2466 30.7809 134.2791 31.0031 134.3086 31.225 134.3412 31.4113 134.3772 31.5615 134.3772 31.5811 134.3673 31.6006 134.3546 31.6168 134.3381 31.6301 134.3183 31.6397 134.299 31.6397 134.0963 31.6137 133.8579 31.5941 133.577 31.5811 133.2998 31.5646 133.0123 31.555 132.715 31.5485 132.4179 31.5451 132.1435 31.542 131.8887 31.542H127.9704C127.6339 31.542 127.2909 31.5485 126.9414 31.5581 126.5922 31.568 126.2622 31.5746 125.9487 31.5845 125.6352 31.5941 125.3611 31.6006 125.1292 31.6006 125.1028 31.578 125.0836 31.5221 125.0668 31.434 125.0507 31.3461 125.0442 31.2579 125.0473 31.1664 125.0507 31.0748 125.0637 31.0127 125.0901 30.9736" fill="#231f20"/>
<path transform="matrix(1,0,0,-1,0,42.5197)" d="M82.0477 14.3198 81.9754 15.1055H80.6414C80.6516 14.8436 80.6618 14.5559 80.6706 14.2455 80.6774 13.9354 80.6825 13.5941 80.6825 13.2236V7.0398H82.2129V9.9043H82.2336C82.3164 9.775 82.425 9.6613 82.5579 9.5596 82.6903 9.4598 82.8437 9.3804 83.0197 9.3217 83.1954 9.2631 83.3882 9.2339 83.5988 9.2322 83.8349 9.2322 84.0657 9.2699 84.293 9.3458 84.5223 9.4218 84.7361 9.5389 84.9379 9.6959 85.1374 9.8527 85.3152 10.0508 85.4702 10.2937 85.6236 10.535 85.7443 10.8213 85.8322 11.1521 85.9201 11.4812 85.9649 11.8587 85.9666 12.2825 85.9649 12.7256 85.9099 13.1289 85.8013 13.4889 85.6925 13.8492 85.5411 14.1593 85.3444 14.4196 85.1462 14.6781 84.9152 14.8782 84.6502 15.0177 84.3826 15.1574 84.0917 15.228 83.7743 15.2297 83.4007 15.228 83.0696 15.1503 82.7816 14.9953 82.4939 14.8402 82.256 14.616 82.0684 14.3198ZM82.2129 12.748C82.2146 12.9824 82.2628 13.1927 82.3561 13.3804 82.4491 13.5683 82.5732 13.7183 82.7317 13.8285 82.8901 13.9405 83.0696 13.9975 83.2677 13.9992 83.4574 13.9975 83.6229 13.9544 83.7658 13.8665 83.9089 13.7803 84.028 13.6579 84.1243 13.4994 84.2207 13.3407 84.293 13.1547 84.3432 12.9393 84.3914 12.7239 84.4155 12.4877 84.4155 12.2309 84.4155 11.9707 84.3914 11.7329 84.3415 11.514 84.2913 11.2952 84.2156 11.1056 84.1175 10.9434 84.0175 10.7816 83.895 10.6557 83.7488 10.5678 83.6022 10.4783 83.4313 10.4335 83.2368 10.4315 83.1056 10.4315 82.98 10.4576 82.8592 10.5075 82.7371 10.5591 82.6285 10.635 82.5301 10.7385 82.4338 10.8403 82.3578 10.9695 82.3008 11.1246 82.2438 11.2813 82.2146 11.4642 82.2129 11.6725ZM90.1857 15.1985C90.1358 15.209 90.0842 15.2175 90.0303 15.2229 89.977 15.228 89.915 15.2297 89.8444 15.2297 89.6615 15.2297 89.479 15.1866 89.2947 15.1021 89.1102 15.0194 88.9415 14.8935 88.7879 14.7266 88.6329 14.5593 88.5104 14.3507 88.4174 14.1026H88.376L88.314 15.1055H87.0007C87.0111 14.849 87.0214 14.5732 87.0301 14.2801 87.0369 13.9853 87.042 13.6613 87.042 13.3064V9.3458H88.5725V12.3239C88.5745 12.6513 88.6294 12.922 88.7346 13.1357 88.8412 13.3495 88.986 13.5096 89.1686 13.6148 89.3514 13.72 89.5601 13.7716 89.7925 13.7716 89.8702 13.7716 89.9408 13.7699 90.0045 13.7648 90.0686 13.7597 90.1287 13.7511 90.1857 13.7407ZM93.4325 15.2297C93.0396 15.2297 92.6779 15.1625 92.3468 15.0282 92.016 14.8952 91.728 14.6988 91.4817 14.4403 91.2368 14.182 91.0457 13.8645 90.9094 13.4889 90.7733 13.1134 90.7044 12.6842 90.7024 12.1997 90.7044 11.7312 90.7716 11.3139 90.9009 10.9468 91.0318 10.5797 91.2161 10.2696 91.4559 10.0145 91.6937 9.7597 91.9746 9.5647 92.2986 9.432 92.6243 9.2993 92.9812 9.2339 93.3704 9.2322 93.6292 9.2322 93.8857 9.2665 94.1428 9.3373 94.3994 9.4096 94.6423 9.5199 94.8716 9.6718 95.1009 9.8215 95.3042 10.0162 95.4816 10.2557 95.6611 10.4939 95.8005 10.7799 95.9023 11.1141 96.0058 11.4486 96.0574 11.8346 96.0593 12.2723 96.0574 12.7117 95.997 13.1117 95.8762 13.4719 95.754 13.8319 95.5797 14.1437 95.3507 14.406 95.1216 14.6679 94.8458 14.8711 94.5235 15.0143 94.2012 15.1557 93.8375 15.228 93.4325 15.2297ZM94.5079 12.2411C94.5079 11.9829 94.4838 11.7414 94.4357 11.5157 94.3872 11.2898 94.3149 11.09 94.2219 10.9159 94.127 10.7436 94.0099 10.6072 93.8718 10.5092 93.7324 10.4111 93.5719 10.3609 93.3914 10.3592 93.2051 10.3609 93.0413 10.4111 92.9001 10.5075 92.757 10.6058 92.6399 10.7402 92.5432 10.9108 92.4469 11.0832 92.376 11.2813 92.3261 11.5072 92.2779 11.7312 92.2538 11.9741 92.2538 12.2309 92.2538 12.4084 92.2657 12.5861 92.2915 12.7633 92.3176 12.941 92.357 13.11 92.4143 13.2701 92.469 13.4303 92.5415 13.5717 92.6311 13.6976 92.721 13.8217 92.8293 13.9198 92.9571 13.9921 93.0844 14.0647 93.2329 14.1007 93.4016 14.1026 93.598 14.1007 93.7653 14.0457 93.9067 13.9388 94.0462 13.8319 94.1615 13.6888 94.2494 13.5096 94.339 13.3305 94.4045 13.1304 94.4461 12.9115 94.4872 12.693 94.5079 12.4688 94.5079 12.2411ZM97.3619 15.1055H96.5968V13.9785H97.3619V9.3458H98.8923V13.9785H100.0298V15.1055H98.8821C98.8801 15.2229 98.8838 15.3468 98.8889 15.4777 98.8943 15.6107 98.9113 15.7382 98.9371 15.8655 98.9631 15.9914 99.006 16.107 99.068 16.2105 99.1287 16.3137 99.2129 16.3964 99.3214 16.4585 99.43 16.5206 99.5698 16.5515 99.7404 16.5535 99.8595 16.5535 99.9626 16.5447 100.0539 16.5257 100.1452 16.5084 100.2266 16.4877 100.2988 16.4602L100.4125 17.6391C100.2988 17.6769 100.1659 17.708 100.0162 17.7338 99.8643 17.7596 99.6939 17.7718 99.5026 17.7735 99.218 17.7752 98.9476 17.7287 98.6924 17.6391 98.4376 17.5479 98.2097 17.4047 98.0101 17.21 97.81 17.0152 97.6533 16.7652 97.5376 16.4568 97.4222 16.1481 97.3638 15.7776 97.3619 15.3434ZM102.4081 16.6774C102.4064 16.8378 102.3721 16.979 102.3049 17.1014 102.236 17.2239 102.1394 17.3186 102.0152 17.3891 101.8928 17.458 101.7482 17.4926 101.5809 17.4943 101.4208 17.4926 101.2793 17.458 101.1572 17.3891 101.0364 17.3186 100.9397 17.2239 100.8709 17.1014 100.8003 16.979 100.766 16.8378 100.764 16.6774 100.766 16.5206 100.8003 16.3809 100.8675 16.2587 100.9363 16.1362 101.0313 16.0396 101.1535 15.969 101.2759 15.8984 101.4174 15.8621 101.5809 15.8604 101.7414 15.8621 101.8826 15.895 102.0067 15.9622 102.1306 16.0294 102.2289 16.124 102.2998 16.2448 102.3704 16.3672 102.4064 16.5118 102.4081 16.6774ZM102.3565 15.1055H100.8261V9.3458H102.3565ZM107.0512 14.9091C106.884 14.9987 106.6788 15.0746 106.4341 15.1347 106.1912 15.1951 105.9208 15.228 105.624 15.2297 105.3037 15.228 105.0123 15.1815 104.754 15.09 104.4955 14.9987 104.273 14.8711 104.0885 14.7076 103.9039 14.5437 103.7628 14.3507 103.6644 14.1301 103.5663 13.9096 103.5164 13.6701 103.5147 13.4096 103.513 13.1995 103.5595 12.9929 103.6562 12.7911 103.7526 12.5909 103.9093 12.4016 104.1248 12.2224 104.3402 12.043 104.6262 11.8811 104.9831 11.7346 105.1917 11.6467 105.3573 11.5622 105.4777 11.4846 105.5985 11.4055 105.6847 11.321 105.736 11.2331 105.7878 11.1453 105.8119 11.0435 105.8102 10.9281 105.8102 10.7504 105.7448 10.6092 105.6138 10.5058 105.4828 10.404 105.283 10.3507 105.0143 10.349 104.8538 10.3507 104.6883 10.3697 104.5213 10.4094 104.3524 10.4471 104.1936 10.4953 104.0454 10.554 103.8971 10.6126 103.7716 10.671 103.6698 10.7314L103.3804 9.625C103.5094 9.5491 103.6596 9.4819 103.8317 9.4252 104.0026 9.3682 104.1885 9.3234 104.3867 9.2908 104.5868 9.2597 104.7917 9.2424 105.0038 9.2424 105.4845 9.2443 105.893 9.32 106.2292 9.47 106.5671 9.6216 106.8236 9.832 107.0011 10.1041 107.1771 10.3748 107.2667 10.6954 107.2684 11.0625 107.2701 11.4588 107.153 11.8018 106.9203 12.0895 106.6859 12.3775 106.3256 12.6204 105.8411 12.8203 105.6223 12.9115 105.4485 12.9963 105.319 13.072 105.19 13.1479 105.0987 13.227 105.0435 13.3064 104.9882 13.3875 104.9607 13.4804 104.9624 13.5856 104.9624 13.6908 104.9902 13.7837 105.0435 13.8665 105.0987 13.9476 105.1775 14.0128 105.2847 14.0613 105.3896 14.1077 105.5208 14.1335 105.6759 14.1335 105.8224 14.1318 105.9619 14.1163 106.0946 14.0854 106.2292 14.0559 106.3531 14.0165 106.4667 13.9717 106.5807 13.9249 106.6788 13.8801 106.7618 13.8336ZM111.6323 14.9091C111.4651 14.9987 111.2598 15.0746 111.0149 15.1347 110.772 15.1951 110.5016 15.228 110.2051 15.2297 109.8848 15.228 109.5931 15.1815 109.3346 15.09 109.0763 14.9987 108.8541 14.8711 108.6695 14.7076 108.485 14.5437 108.3438 14.3507 108.2455 14.1301 108.1471 13.9096 108.0972 13.6701 108.0955 13.4096 108.0938 13.1995 108.1403 12.9929 108.237 12.7911 108.3334 12.5909 108.4901 12.4016 108.7055 12.2224 108.9213 12.043 109.2073 11.8811 109.5639 11.7346 109.7725 11.6467 109.938 11.5622 110.0585 11.4846 110.1793 11.4055 110.2654 11.321 110.317 11.2331 110.3689 11.1453 110.393 11.0435 110.3913 10.9281 110.3913 10.7504 110.3258 10.6092 110.1946 10.5058 110.0639 10.404 109.8641 10.3507 109.5951 10.349 109.4349 10.3507 109.2694 10.3697 109.1018 10.4094 108.9332 10.4471 108.7744 10.4953 108.6265 10.554 108.4782 10.6126 108.3523 10.671 108.2509 10.7314L107.9612 9.625C108.0904 9.5491 108.2404 9.4819 108.4127 9.4252 108.5831 9.3682 108.7693 9.3234 108.9677 9.2908 109.1676 9.2597 109.3728 9.2424 109.5846 9.2424 110.0656 9.2443 110.4738 9.32 110.81 9.47 111.1479 9.6216 111.4044 9.832 111.5821 10.1041 111.7579 10.3748 111.8475 10.6954 111.8492 11.0625 111.8509 11.4588 111.7338 11.8018 111.5011 12.0895 111.2666 12.3775 110.9066 12.6204 110.4222 12.8203 110.2034 12.9115 110.0293 12.9963 109.9001 13.072 109.7708 13.1479 109.6795 13.227 109.6243 13.3064 109.569 13.3875 109.5415 13.4804 109.5432 13.5856 109.5432 13.6908 109.571 13.7837 109.6243 13.8665 109.6795 13.9476 109.7586 14.0128 109.8658 14.0613 109.9706 14.1077 110.1016 14.1335 110.2569 14.1335 110.4032 14.1318 110.5427 14.1163 110.6756 14.0854 110.81 14.0559 110.9341 14.0165 111.0478 13.9717 111.1618 13.9249 111.2598 13.8801 111.3426 13.8336ZM114.476 16.6774C114.474 16.8378 114.4395 16.979 114.3723 17.1014 114.3034 17.2239 114.2067 17.3186 114.0829 17.3891 113.9607 17.458 113.8158 17.4926 113.6483 17.4943 113.4882 17.4926 113.347 17.458 113.2245 17.3891 113.1041 17.3186 113.0074 17.2239 112.9385 17.1014 112.8679 16.979 112.8334 16.8378 112.8317 16.6774 112.8334 16.5206 112.8679 16.3809 112.9351 16.2587 113.004 16.1362 113.099 16.0396 113.2211 15.969 113.3436 15.8984 113.4848 15.8621 113.6483 15.8604 113.8088 15.8621 113.9502 15.895 114.0741 15.9622 114.1982 16.0294 114.2963 16.124 114.3672 16.2448 114.4378 16.3672 114.474 16.5118 114.476 16.6774ZM114.4242 15.1055H112.8937V9.3458H114.4242ZM118.1985 15.2297C117.8056 15.2297 117.4436 15.1625 117.1125 15.0282 116.7817 14.8952 116.494 14.6988 116.2477 14.4403 116.0028 14.182 115.8114 13.8645 115.6754 13.4889 115.539 13.1134 115.4701 12.6842 115.4684 12.1997 115.4701 11.7312 115.5373 11.3139 115.6669 10.9468 115.7975 10.5797 115.9821 10.2696 116.2216 10.0145 116.4597 9.7597 116.7403 9.5647 117.0643 9.432 117.3903 9.2993 117.7469 9.2339 118.1364 9.2322 118.3949 9.2322 118.6517 9.2665 118.9086 9.3373 119.1654 9.4096 119.4083 9.5199 119.6374 9.6718 119.8667 9.8215 120.0702 10.0162 120.2474 10.2557 120.4268 10.4939 120.5663 10.7799 120.668 11.1141 120.7718 11.4486 120.8231 11.8346 120.8248 12.2723 120.8231 12.7117 120.7627 13.1117 120.6422 13.4719 120.5201 13.8319 120.3457 14.1437 120.1167 14.406 119.8874 14.6679 119.6116 14.8711 119.2893 15.0143 118.967 15.1557 118.6036 15.228 118.1985 15.2297ZM119.274 12.2411C119.274 11.9829 119.2499 11.7414 119.2014 11.5157 119.1532 11.2898 119.0809 11.09 118.9877 10.9159 118.893 10.7436 118.7756 10.6072 118.6379 10.5092 118.4984 10.4111 118.338 10.3609 118.1571 10.3592 117.9709 10.3609 117.8073 10.4111 117.6661 10.5075 117.5227 10.6058 117.4056 10.7402 117.309 10.9108 117.2126 11.0832 117.1417 11.2813 117.0921 11.5072 117.0439 11.7312 117.0196 11.9741 117.0196 12.2309 117.0196 12.4084 117.0315 12.5861 117.0575 12.7633 117.0833 12.941 117.1227 13.11 117.18 13.2701 117.235 13.4303 117.3073 13.5717 117.3969 13.6976 117.4867 13.8217 117.5953 13.9198 117.7228 13.9921 117.8501 14.0647 117.9986 14.1007 118.1673 14.1026 118.364 14.1007 118.5313 14.0457 118.6724 13.9388 118.8122 13.8319 118.9276 13.6888 119.0151 13.5096 119.105 13.3305 119.1702 13.1304 119.2119 12.9115 119.2533 12.693 119.274 12.4688 119.274 12.2411ZM126.8535 12.8789C126.8518 13.2806 126.8036 13.627 126.7087 13.9215 126.6157 14.2163 126.483 14.4592 126.3141 14.6523 126.1434 14.8436 125.9453 14.9865 125.7194 15.0797 125.4934 15.1727 125.2474 15.2195 124.9818 15.2195 124.7734 15.2175 124.5801 15.1917 124.4047 15.1381 124.2286 15.0866 124.0719 15.016 123.9321 14.9281 123.7927 14.8419 123.6719 14.7455 123.5687 14.6387 123.465 14.5335 123.3825 14.4266 123.317 14.3198H123.2861L123.2138 15.1055H121.89C121.9003 14.8541 121.9107 14.5851 121.9192 14.3025 121.926 14.0199 121.9314 13.7115 121.9314 13.3753V9.3458H123.4616V12.7755C123.4636 12.9929 123.4962 13.1771 123.5565 13.3305 123.6186 13.4821 123.6997 13.6046 123.798 13.6993 123.8961 13.7923 124.003 13.8611 124.1167 13.9042 124.2303 13.9476 124.3392 13.968 124.4441 13.968 124.6598 13.9666 124.8318 13.9096 124.9611 13.7974 125.0904 13.6854 125.1833 13.5357 125.2403 13.3458 125.297 13.1564 125.3248 12.9444 125.3231 12.7066V9.3458H126.8535ZM132.5203 12.8203C132.522 13.1391 132.4874 13.4408 132.4168 13.7268 132.3442 14.0148 132.2237 14.2699 132.0534 14.4938 131.8825 14.7161 131.6497 14.8935 131.3552 15.0211 131.0604 15.1503 130.6899 15.2175 130.2452 15.2195 129.9453 15.2175 129.668 15.1917 129.4129 15.1435 129.1595 15.0953 128.9339 15.035 128.7371 14.961 128.541 14.8867 128.3788 14.8107 128.2496 14.7334L128.539 13.7407C128.7286 13.856 128.9441 13.951 129.1887 14.0233 129.4336 14.0939 129.6884 14.1318 129.9557 14.1335 130.2316 14.1318 130.4453 14.0871 130.5967 14.0009 130.7469 13.913 130.8501 13.794 130.9088 13.6443 130.9657 13.4923 130.9932 13.3217 130.9898 13.1304 130.5295 13.1304 130.1091 13.0876 129.7267 12.9997 129.3437 12.9115 129.0129 12.7789 128.732 12.5997 128.4511 12.4206 128.234 12.1946 128.0806 11.9225 127.9256 11.6501 127.8479 11.3278 127.8462 10.959 127.8462 10.7246 127.8876 10.5041 127.967 10.2971 128.0463 10.0885 128.16 9.906 128.3097 9.7475 128.4599 9.5873 128.6408 9.4612 128.8545 9.3719 129.0665 9.2803 129.306 9.2339 129.5731 9.2322 129.7885 9.2322 129.99 9.2614 130.1814 9.3166 130.373 9.3719 130.5454 9.4527 130.7021 9.5579 130.8589 9.6647 130.9932 9.794 131.1038 9.9456H131.1344L131.2277 9.3458H132.6027C132.5823 9.4649 132.5667 9.5975 132.5546 9.7441 132.5426 9.8906 132.5339 10.0457 132.5271 10.2093 132.522 10.3748 132.5203 10.542 132.5203 10.7107ZM131.0312 11.321C131.0295 11.1382 130.9966 10.9831 130.9314 10.8556 130.8677 10.7297 130.7863 10.6265 130.6865 10.5489 130.5865 10.4712 130.4813 10.4145 130.373 10.3799 130.2625 10.3456 130.1627 10.3283 130.0697 10.3283 129.9402 10.3283 129.8214 10.3558 129.7108 10.4111 129.6026 10.4644 129.5147 10.5506 129.4489 10.6659 129.3817 10.7833 129.3474 10.9315 129.3457 11.1141 129.3474 11.3227 129.3973 11.4934 129.4923 11.6294 129.5887 11.7638 129.7162 11.8689 129.8781 11.9446 130.0402 12.0206 130.2194 12.0742 130.4195 12.1051 130.6174 12.1346 130.8226 12.1499 131.0312 12.1482ZM135.4156 17.6598H133.8851V9.3458H135.4156Z" fill="#231f20"/>
<path transform="matrix(1,0,0,-1,0,42.5197)" d="M20.4741 36.5009 29.6368 23.3467 25.0532 23.3515ZM29.5863 22.8115 20.4752 9.7316 25.0526 22.8158ZM19.7161 9.1843 10.0338 23.0839H10.0777L19.7456 36.9632 24.5786 23.0842Z" fill="#231f20" fill-rule="evenodd"/>
</g>
</svg>
